<svg width="45" height="24" viewBox="0 0 109 55" fill="none" xmlns="http://www.w3.org/2000/svg">
<path d="M0 0.816803V54.167H109V0.816803H0ZM7.7918 6.75001H101.229V48.25H7.7918V6.75001ZM15.5623 12.6832V42.333H27.25C33.6793 42.333 38.9377 38.3451 38.9377 33.4332V21.583C38.9377 16.6873 33.7006 12.6832 27.25 12.6832H15.5623V12.6832ZM54.5 12.6832C50.1996 12.6832 46.7082 15.3418 46.7082 18.6164V36.3998C46.7082 39.6744 50.1996 42.333 54.5 42.333H62.2918V36.3998H54.5V30.4666H62.2918V24.5334H54.5V18.6002H62.2918V12.667H54.5V12.6832ZM68.8701 12.6832L76.9813 39.4313C77.4922 41.1172 79.4721 42.3168 81.75 42.3168C84.0279 42.3168 86.0078 41.1172 86.5187 39.4313L94.6299 12.6832H86.6465L81.75 28.7969L76.8535 12.667H68.8701V12.6832ZM23.3541 18.6002H27.25C29.4002 18.6002 31.1459 19.9295 31.1459 21.5668V33.417C31.1459 35.0543 29.4002 36.3836 27.25 36.3836H23.3541V18.6002Z" fill="white"/>
</svg>
